<svg width="240" height="317" viewBox="0 0 240 317" fill="none" xmlns="http://www.w3.org/2000/svg">
<path d="M23.9543 287H15.6451C7.01858 287 0 293.729 0 301.999C0 310.269 7.01858 316.998 15.6451 316.998H23.9543C32.5808 316.998 39.5994 310.269 39.5994 301.999C39.5994 293.729 32.5798 287 23.9543 287ZM23.9543 310.062H15.6451C11.0074 310.062 7.23352 306.445 7.23352 301.998C7.23352 297.551 11.0063 293.934 15.6451 293.934H23.9543C28.592 293.934 32.3659 297.551 32.3659 301.998C32.3659 306.445 28.5931 310.062 23.9543 310.062ZM57.6057 287H77.9433V293.935H57.6057C52.968 293.935 49.1942 297.552 49.1942 301.999C49.1942 306.446 52.9669 310.063 57.6057 310.063H77.9433V316.998H57.6057C48.9792 316.998 41.9606 310.269 41.9606 301.999C41.9606 293.729 48.9792 287 57.6057 287ZM200.209 301.999V317H192.976V301.999C192.976 297.553 189.203 293.935 184.564 293.935H167.844V316.999H160.61V287H184.564C193.191 287 200.209 293.729 200.209 301.999ZM115.938 301.999V317H123.171V310.337H148.303V317H155.536V287H131.582C122.955 287 115.938 293.729 115.938 301.999ZM148.304 303.402H123.172V301.999C123.172 297.553 126.945 293.935 131.584 293.935H148.305L148.304 303.402ZM81.1839 287H115.445V293.935H101.931V316.999H94.6971V293.935H81.1839V287ZM211.252 293.935V298.532H223.981V305.466H211.252V310.063H240V316.998H204.018V287H240V293.935H211.252Z" fill="#F4EEE8"/>
<path d="M193.236 90.1725L180.926 77.8919C160.831 57.8401 149.139 32.6577 142.347 3.72086C141.204 -1.15282 134.284 -1.28136 133.119 3.58697C126.779 30.1137 117.137 51.4187 100.038 68.4765L93.4934 75.0051L100.537 78.1918C106.265 80.7839 111.317 83.7189 115.982 87.1626C119.692 89.8993 122.784 92.9306 125.479 96.1173L135.766 85.8611L166.667 116.683C183.701 133.682 183.701 161.334 166.667 178.333L136.136 208.785C127.879 217.022 116.906 221.553 105.234 221.553C93.5632 221.553 82.5899 217.017 74.333 208.785C57.2985 191.786 57.2985 164.135 74.333 147.136L87.0297 134.469C89.9824 128.321 94.5564 120.18 98.3037 109.801C101.224 101.714 99.8337 93.2038 94.2074 86.5092L88.6188 79.8681L47.764 120.625C16.0787 152.24 16.0787 203.676 47.764 235.29C63.6066 251.1 84.4205 259 105.234 259C126.048 259 146.862 251.095 162.705 235.29L193.236 204.838C224.921 173.223 224.921 121.787 193.236 90.1671V90.1725Z" fill="#F4EEE8"/>
<path d="M151.909 123.41C157.455 134.555 156.059 159.909 135.905 156.771C131.278 156.048 127.155 153.707 125.786 148.432C124.927 145.111 127.203 139.74 128.293 136.548C134.751 117.615 126.677 101.714 112.794 91.4686C108.762 88.4962 104.134 85.7059 98.3199 83.0709C105.154 91.1955 107.081 101.634 103.281 111.82C101.015 117.385 98.0086 123.255 95.3726 128.664C90.6375 138.385 86.7077 149.894 89.7034 165.854C91.1636 173.641 96.1349 180.03 100.843 184.545C86.9654 186.222 81.6344 177.01 78.875 173.143C75.9276 169.014 73.8769 158.511 78.1288 150.928C63.1934 165.832 63.1934 190.094 78.1288 205.004C85.3763 212.229 95.0022 216.203 105.235 216.203C115.467 216.203 125.093 212.229 132.341 205.004L158.995 178.418C174.269 162.721 169.475 140.945 151.904 123.415L151.909 123.41Z" fill="#FF415A"/>
</svg>
