<svg width="128" height="128" viewBox="0 0 128 128" fill="none" xmlns="http://www.w3.org/2000/svg">
<mask id="mask0_14_23" style="mask-type:luminance" maskUnits="userSpaceOnUse" x="0" y="0" width="128" height="128">
<path d="M128 0H0V128H128V0Z" fill="white"/>
</mask>
<g mask="url(#mask0_14_23)">
<path d="M71.6718 -0.140622C71.8843 -0.147392 72.0969 -0.154162 72.3157 -0.161133C72.5166 -0.159837 72.7177 -0.158558 72.9248 -0.157216C73.1023 -0.157401 73.2797 -0.157586 73.4626 -0.157771C74.0958 0.0281219 74.5523 0.270906 75.0012 0.760807C75.6121 1.96186 75.3982 3.44668 75.3721 4.7627C75.3698 5.10843 75.3679 5.45415 75.3667 5.79987C75.3619 6.70705 75.3497 7.61397 75.3359 8.52104C75.3231 9.44775 75.3174 10.3745 75.311 11.3013C75.2976 13.1177 75.2763 14.9338 75.25 16.75C75.4184 16.7828 75.5868 16.8155 75.7601 16.8493C75.9828 16.8931 76.2053 16.9369 76.4348 16.9819C76.6547 17.0249 76.8746 17.0681 77.1012 17.1124C78.0308 17.3096 78.927 17.575 79.8281 17.875C80.0162 17.9374 80.2042 17.9999 80.3979 18.0644C82.8569 18.9172 85.1763 20.0866 87.5 21.25C87.6974 21.3486 87.895 21.4471 88.0984 21.5486C88.5658 21.7819 89.0329 22.0159 89.5001 22.25C89.6637 22.1201 89.8275 21.9903 89.996 21.8564C93.8905 18.8806 98.2634 17.877 103.094 18.3907C108.082 19.1888 113.16 21.3429 116.25 25.5001C116.597 26.3748 116.565 26.8755 116.25 27.7499C115.912 28.2171 115.912 28.2171 115.487 28.6845C115.329 28.8585 115.171 29.0323 115.008 29.2113C114.16 30.1104 113.292 30.9883 112.415 31.8594C112.223 32.0507 112.032 32.2421 111.834 32.4394C111.228 33.0434 110.622 33.6467 110.016 34.25C109.602 34.6624 109.188 35.0748 108.775 35.4873C107.767 36.4922 106.759 37.4965 105.75 38.4999C105.884 38.766 106.018 39.0318 106.156 39.3057C106.335 39.6629 106.514 40.0199 106.693 40.3769C106.825 40.6383 106.825 40.6383 106.959 40.9051C108.263 43.5047 109.412 46.1343 110.344 48.8906C110.406 49.0751 110.469 49.2595 110.534 49.4497C110.894 50.5501 111.12 51.5991 111.25 52.75C111.549 52.7294 111.848 52.7087 112.156 52.6874C116.138 52.7063 119.556 54.8304 122.312 57.5322C126.03 61.4132 128.032 66.3332 128.141 71.6718C128.147 71.8844 128.154 72.0969 128.161 72.3157C128.159 72.6172 128.159 72.6172 128.157 72.9249C128.157 73.1024 128.158 73.2797 128.158 73.4626C127.972 74.0958 127.729 74.5523 127.239 75.0012C126.038 75.6121 124.553 75.3982 123.237 75.3721C122.892 75.3698 122.546 75.368 122.2 75.3667C121.293 75.3619 120.386 75.3498 119.479 75.3359C118.552 75.3231 117.626 75.3174 116.699 75.311C114.882 75.2976 113.066 75.2764 111.25 75.25C111.201 75.5026 111.201 75.5026 111.151 75.7601C111.107 75.9828 111.063 76.2054 111.018 76.4348C110.975 76.6547 110.932 76.8747 110.888 77.1012C110.69 78.0308 110.425 78.927 110.125 79.8281C110.063 80.0162 110 80.2042 109.936 80.3979C109.083 82.8569 107.913 85.1763 106.75 87.5C106.651 87.6974 106.553 87.895 106.451 88.0984C106.218 88.5658 105.984 89.033 105.75 89.5001C105.88 89.6637 106.01 89.8275 106.144 89.996C108.631 93.2509 110.138 97.3415 109.75 101.5C109.73 101.749 109.709 101.998 109.688 102.255C109.101 107.556 106.903 112.246 102.867 115.809C102.165 116.311 101.637 116.44 100.772 116.394C100.126 116.216 99.8092 115.946 99.3164 115.495C99.1425 115.336 98.9685 115.177 98.7893 115.013C97.8926 114.16 97.0124 113.293 96.1407 112.415C95.9493 112.223 95.7579 112.032 95.5606 111.834C94.9566 111.228 94.3533 110.622 93.75 110.016C93.3376 109.602 92.9252 109.188 92.5127 108.775C91.5078 107.767 90.5036 106.759 89.5001 105.75C88.6474 106.081 87.8587 106.455 87.061 106.904C83.747 108.758 79.121 111.25 75.25 111.25C75.2706 111.549 75.2913 111.848 75.3124 112.156C75.2882 116.034 73.2151 119.428 70.6142 122.166C66.6394 125.945 61.7927 128.042 56.3282 128.125C56.0094 128.132 56.0094 128.132 55.6843 128.139C55.4834 128.137 55.2823 128.135 55.0752 128.133C54.8977 128.132 54.7203 128.131 54.5374 128.129C53.7406 127.938 53.3319 127.571 52.75 127C52.5997 126.282 52.5997 126.282 52.6082 125.441C52.6082 125.125 52.6083 124.81 52.6083 124.485C52.6148 124.143 52.6213 123.8 52.6279 123.457C52.6302 123.105 52.6321 122.754 52.6333 122.402C52.6381 121.478 52.6503 120.554 52.6641 119.63C52.6769 118.687 52.6826 117.743 52.689 116.8C52.7024 114.95 52.7237 113.1 52.75 111.25C52.5832 111.218 52.4162 111.186 52.2444 111.153C51.912 111.088 51.912 111.088 51.5732 111.022C51.3547 110.98 51.1363 110.937 50.9112 110.894C49.8762 110.669 48.8878 110.338 47.8907 109.984C47.6782 109.909 47.4658 109.835 47.247 109.758C44.3855 108.72 41.4985 107.507 39.0001 105.75C38.2003 106.125 37.496 106.583 36.7656 107.078C32.6762 109.682 27.9467 110.298 23.2431 109.303C19.1443 108.279 15.7836 106.427 12.75 103.5C12.5647 103.334 12.3794 103.169 12.1885 102.998C11.6913 102.433 11.5955 102.18 11.5781 101.438C11.6424 100.473 11.851 100.014 12.5054 99.3077C12.6645 99.1349 12.8235 98.9622 12.9873 98.7842C13.8431 97.8924 14.7079 97.0115 15.585 96.1407C15.7767 95.9493 15.9684 95.7579 16.1659 95.5607C16.7715 94.9566 17.3779 94.3533 17.9843 93.75C18.3981 93.3376 18.8115 92.9252 19.2251 92.5127C20.2328 91.5078 21.2411 90.5036 22.2499 89.5001C21.919 88.6474 21.545 87.8587 21.0964 87.061C19.2423 83.747 16.75 79.121 16.75 75.25C16.4509 75.2706 16.1519 75.2913 15.8438 75.3124C11.8621 75.2938 8.44401 73.1696 5.6875 70.4677C1.9702 66.5868 -0.0320269 61.6669 -0.140624 56.3282C-0.147392 56.1157 -0.154159 55.9032 -0.161133 55.6843C-0.159844 55.4834 -0.158554 55.2823 -0.157227 55.0752C-0.157407 54.8977 -0.157589 54.7203 -0.157776 54.5374C0.0281214 53.9042 0.270901 53.4477 0.760796 52.9988C1.96186 52.3879 3.44667 52.6018 4.7627 52.6279C5.10842 52.6302 5.45416 52.6321 5.79988 52.6333C6.70705 52.6381 7.61397 52.6503 8.52104 52.6641C9.44776 52.6769 10.3745 52.6827 11.3013 52.689C13.1176 52.7024 14.9338 52.7237 16.75 52.75C16.782 52.5832 16.814 52.4162 16.847 52.2444C16.8901 52.0228 16.9335 51.8013 16.978 51.5732C17.0414 51.2455 17.0414 51.2455 17.1062 50.9112C17.3314 49.8762 17.662 48.8878 18.0156 47.8907C18.0906 47.6782 18.1654 47.4658 18.2425 47.247C19.2796 44.3855 20.4931 41.4985 22.2499 39.0001C21.875 38.2003 21.4172 37.496 20.9218 36.7656C18.3237 32.6844 17.6938 27.9478 18.6973 23.2519C19.7783 18.9542 21.7938 14.439 25.5001 11.7499C26.3529 11.4383 26.894 11.4744 27.7499 11.7499C28.2201 12.0855 28.2201 12.0855 28.6865 12.5113C28.86 12.6695 29.0336 12.8276 29.2124 12.9906C30.1098 13.8408 30.9883 14.7078 31.8594 15.585C32.0507 15.7767 32.2421 15.9684 32.4394 16.1659C33.0434 16.7716 33.6467 17.3779 34.25 17.9843C34.6624 18.3981 35.0748 18.8115 35.4873 19.2251C36.4922 20.2328 37.4964 21.2411 38.4999 22.25C39.243 21.9628 39.9497 21.6615 40.6435 21.2705C48.8209 16.75 48.8209 16.75 52.75 16.75C52.7294 16.4509 52.7087 16.1519 52.6876 15.8438C52.7062 11.8621 54.8304 8.444 57.5323 5.68751C61.4132 1.97021 66.3332 -0.0320225 71.6718 -0.140622ZM60.9083 9.3164C59.0597 11.2362 57.9417 13.0998 57.5001 15.75C61.7901 15.75 66.0799 15.75 70.4999 15.75C70.4999 12.1201 70.4999 8.49 70.4999 4.75C66.8637 4.75 63.4254 6.83866 60.9083 9.3164ZM26.5 17.5001C23.7101 21.3068 22.7448 25.307 23.25 30C23.5935 31.6933 24.1892 33.1361 25.2499 34.5C26.675 33.121 28.0368 31.6558 29.2637 30.0976C29.6968 29.5655 30.1209 29.132 30.6406 28.6874C30.8111 28.5415 30.9816 28.3955 31.1572 28.2451C32.2639 27.3208 33.3799 26.408 34.5 25.5001C33.1778 23.8819 31.709 22.4208 30.2304 20.9477C29.7927 20.5115 29.3566 20.074 28.9204 19.6363C28.6433 19.3593 28.3662 19.0825 28.0889 18.8057C27.8927 18.6089 27.8927 18.6089 27.6927 18.408C27.183 17.7795 27.183 17.7795 26.5 17.5001ZM53.75 21.25C53.5615 21.2929 53.3729 21.3356 53.1788 21.3797C42.4909 23.9038 32.7882 31.2408 26.9531 40.4688C22.5406 47.6361 20.1288 55.4801 20.1719 63.9218C20.1723 64.1083 20.1728 64.2947 20.1733 64.4869C20.1851 67.3851 20.3468 70.1699 21 73C21.0583 73.2758 21.0583 73.2759 21.118 73.5571C23.473 84.5662 30.5413 94.607 39.9668 100.73C47.2505 105.335 55.2766 107.872 63.9218 107.828C64.1083 107.828 64.2947 107.827 64.4869 107.827C67.3851 107.815 70.1699 107.653 72.9999 107C73.1839 106.961 73.3678 106.922 73.5571 106.882C84.5662 104.527 94.607 97.4588 100.73 88.033C105.316 80.7793 107.867 72.7722 107.844 64.1562C107.844 63.8799 107.844 63.8799 107.844 63.598C107.834 60.2422 107.516 57.0249 106.75 53.75C106.706 53.5588 106.662 53.3677 106.616 53.1706C103.99 42.2642 96.5202 32.4954 87.0261 26.6417C82.6282 24.0009 78.0023 22.13 72.9999 21C72.8226 20.9584 72.6451 20.9168 72.4623 20.8737C66.4726 19.5203 59.6909 19.8653 53.75 21.25ZM93.5 25.2499C94.879 26.6751 96.3442 28.0368 97.9024 29.2637C98.4345 29.6968 98.868 30.1209 99.3124 30.6406C99.4585 30.8112 99.6045 30.9816 99.7549 31.1572C100.679 32.2639 101.592 33.3799 102.5 34.5C103.76 33.4473 104.93 32.3444 106.078 31.1719C106.384 30.8597 106.69 30.5482 106.997 30.2373C107.13 30.1016 107.263 29.9657 107.4 29.8259C107.75 29.5 107.75 29.5 108.25 29.25C108.25 29.085 108.25 28.92 108.25 28.75C108.389 28.6933 108.528 28.6365 108.672 28.5781C109.415 28.1562 109.93 27.6334 110.5 27C110.5 26.835 110.5 26.67 110.5 26.5C105.872 22.9102 98.4275 21.4175 93.5 25.2499ZM4.75 57.5001C5.22368 61.7633 7.06737 65.3727 10.3491 68.1927C11.9532 69.4226 13.7661 70.1693 15.75 70.4999C15.75 66.2099 15.75 61.9199 15.75 57.5001C12.12 57.5001 8.48999 57.5001 4.75 57.5001ZM112.25 57.5001C112.25 61.7899 112.25 66.0799 112.25 70.4999C115.88 70.4999 119.51 70.4999 123.25 70.4999C122.776 66.2368 120.933 62.6273 117.651 59.8073C116.047 58.5774 114.234 57.8307 112.25 57.5001ZM24.2548 94.1806C24.0296 94.4034 24.0296 94.4034 23.7998 94.6307C23.6384 94.7931 23.4769 94.9557 23.3105 95.123C23.1447 95.2883 22.9791 95.4536 22.8082 95.6239C22.4575 95.9743 22.1075 96.3253 21.758 96.6769C21.221 97.2165 20.6814 97.7535 20.1416 98.29C19.8019 98.63 19.4623 98.9702 19.123 99.3106C18.9605 99.4721 18.7981 99.6335 18.6306 99.7999C18.4821 99.95 18.3336 100.1 18.1805 100.255C18.0488 100.387 17.9171 100.519 17.7814 100.655C17.4473 100.99 17.4473 100.99 17.5001 101.5C20.6937 103.977 24.7527 105.265 28.7891 104.935C30.9142 104.64 32.7014 103.91 34.5 102.75C33.4882 101.704 32.4125 100.739 31.3262 99.7715C30.7501 99.25 30.7501 99.25 30.3301 98.8066C30.014 98.4433 30.014 98.4433 29.5 98.5C29.4368 98.3543 29.3737 98.2087 29.3086 98.0587C28.9644 97.4355 28.5809 97.0487 28.0625 96.5624C27.1975 95.7258 26.4883 94.8573 25.8067 93.8672C25.7055 93.746 25.6043 93.6249 25.5001 93.5C24.832 93.5 24.722 93.7147 24.2548 94.1806ZM102.5 93.5C102.149 93.9161 101.807 94.3394 101.469 94.7657C100.633 95.8026 99.7796 96.76 98.8037 97.6651C98.444 97.9863 98.444 97.9863 98.5 98.5C98.3543 98.5631 98.2087 98.6263 98.0586 98.6914C97.4355 99.0356 97.0487 99.4191 96.5624 99.9375C95.6155 100.913 94.6051 101.714 93.5 102.5C94.9516 104.28 96.5907 105.869 98.2187 107.484C98.5131 107.777 98.8074 108.071 99.1016 108.364C99.817 109.077 100.533 109.789 101.25 110.5C102.419 109.049 103.314 107.745 103.922 105.969C104.078 105.519 104.078 105.519 104.237 105.061C105.253 101.925 105.22 97.9751 103.75 95.0001C103.447 94.4455 103.148 93.9944 102.75 93.5C102.668 93.5 102.585 93.5 102.5 93.5ZM57.5001 112.25C57.5001 115.88 57.5001 119.51 57.5001 123.25C61.7632 122.776 65.3727 120.933 68.1927 117.651C69.4226 116.047 70.1693 114.234 70.4999 112.25C66.2099 112.25 61.9201 112.25 57.5001 112.25Z" fill="black"/>
<path d="M82.125 40.7968C82.5017 41.1125 82.8769 41.4301 83.25 41.7501C83.4873 41.9419 83.4873 41.9419 83.7294 42.1378C88.8629 46.3419 92.3886 53.3216 93.1933 59.8539C93.9715 68.7126 91.8183 76.5122 86.2168 83.4062C85.1558 84.6378 84.0218 85.7384 82.75 86.7499C82.5125 86.9401 82.275 87.1302 82.0303 87.3262C76.8154 91.3439 70.6192 93.3592 64.0625 93.328C63.7548 93.3268 63.4472 93.3257 63.1302 93.3243C60.8276 93.2947 58.7232 93.1104 56.5 92.5001C56.201 92.4208 55.9019 92.3414 55.5938 92.2598C48.4958 90.1395 42.0377 85.1593 38.4228 78.662C34.5967 71.4879 33.5798 63.4462 35.7578 55.5674C38.0179 48.1996 42.9678 41.9357 49.7334 38.1895C60.0868 32.7162 72.8718 33.4947 82.125 40.7968ZM45.7949 47.3711C40.935 52.98 39.1281 59.3917 39.5 66.75C40.0905 72.8593 43.3854 78.7516 48 82.75C53.5916 87.2772 60.1417 89.1389 67.3144 88.4454C73.7678 87.5593 79.7488 83.9629 83.694 78.8113C87.6695 73.4174 89.2893 66.8313 88.376 60.1797C87.4916 55.4226 85.5164 51.0732 82.25 47.5C82.0631 47.2898 81.8762 47.0798 81.6836 46.8633C77.8765 42.804 72.0202 39.7624 66.4044 39.4689C58.4846 39.2389 51.3619 41.5389 45.7949 47.3711Z" fill="#545454"/>
</g>
</svg>
