<svg width="338" height="86" viewBox="0 0 338 86" fill="none" xmlns="http://www.w3.org/2000/svg">
<path d="M103.572 72.828C98.8797 72.828 94.7997 72.012 91.3317 70.38C87.9317 68.748 85.1097 66.572 82.8657 63.852C80.6217 61.064 78.9217 58.004 77.7657 54.672C76.6777 51.34 76.1337 48.008 76.1337 44.676V42.84C76.1337 39.372 76.6777 35.972 77.7657 32.64C78.9217 29.308 80.6217 26.316 82.8657 23.664C85.1777 20.944 88.0337 18.768 91.4337 17.136C94.8337 15.504 98.8117 14.688 103.368 14.688C107.924 14.688 112.004 15.538 115.608 17.238C119.28 18.938 122.204 21.352 124.38 24.48C126.624 27.54 127.882 31.178 128.154 35.394H118.77C118.294 31.994 116.73 29.172 114.078 26.928C111.426 24.616 107.856 23.46 103.368 23.46C99.4917 23.46 96.2617 24.344 93.6777 26.112C91.0937 27.88 89.1557 30.294 87.8637 33.354C86.5717 36.414 85.9257 39.882 85.9257 43.758C85.9257 47.498 86.5717 50.932 87.8637 54.06C89.1557 57.12 91.0937 59.568 93.6777 61.404C96.3297 63.172 99.6277 64.056 103.572 64.056C106.632 64.056 109.284 63.512 111.528 62.424C113.772 61.336 115.574 59.874 116.934 58.038C118.294 56.202 119.11 54.128 119.382 51.816H128.766C128.562 56.1 127.304 59.806 124.992 62.934C122.748 66.062 119.756 68.51 116.016 70.278C112.344 71.978 108.196 72.828 103.572 72.828ZM158.187 71.604C154.107 71.604 150.571 71.026 147.579 69.87C144.655 68.714 142.377 66.742 140.745 63.954C139.181 61.098 138.399 57.256 138.399 52.428V3.57628e-07H147.783V53.652C147.783 56.576 148.565 58.854 150.129 60.486C151.761 62.05 154.039 62.832 156.963 62.832H166.551V71.604H158.187ZM129.015 23.868V16.524H166.551V23.868H129.015ZM208.048 70.992V54.672H206.416V35.802C206.416 32.062 205.43 29.24 203.458 27.336C201.554 25.432 198.732 24.48 194.992 24.48C192.884 24.48 190.708 24.514 188.464 24.582C186.22 24.65 184.078 24.718 182.038 24.786C179.998 24.854 178.23 24.956 176.734 25.092V16.524C178.23 16.388 179.794 16.286 181.426 16.218C183.126 16.082 184.86 16.014 186.628 16.014C188.396 15.946 190.096 15.912 191.728 15.912C197.304 15.912 201.86 16.592 205.396 17.952C208.932 19.244 211.55 21.386 213.25 24.378C214.95 27.37 215.8 31.416 215.8 36.516V70.992H208.048ZM190.198 72.42C186.118 72.42 182.582 71.74 179.59 70.38C176.666 68.952 174.388 66.912 172.756 64.26C171.192 61.608 170.41 58.412 170.41 54.672C170.41 50.796 171.26 47.566 172.96 44.982C174.728 42.398 177.278 40.46 180.61 39.168C183.942 37.808 187.954 37.128 192.646 37.128H207.436V44.472H192.238C188.294 44.472 185.268 45.424 183.16 47.328C181.052 49.232 179.998 51.68 179.998 54.672C179.998 57.664 181.052 60.078 183.16 61.914C185.268 63.75 188.294 64.668 192.238 64.668C194.55 64.668 196.76 64.26 198.868 63.444C200.976 62.56 202.71 61.132 204.07 59.16C205.498 57.12 206.28 54.332 206.416 50.796L209.068 54.672C208.728 58.548 207.776 61.812 206.212 64.464C204.716 67.048 202.608 69.02 199.888 70.38C197.236 71.74 194.006 72.42 190.198 72.42ZM228.672 70.992V16.524H236.424V39.882H235.2C235.2 34.51 235.914 29.988 237.342 26.316C238.838 22.576 241.082 19.754 244.074 17.85C247.066 15.878 250.84 14.892 255.396 14.892H255.804C262.672 14.892 267.738 17.034 271.002 21.318C274.334 25.602 276 31.79 276 39.882V70.992H266.208V37.842C266.208 33.626 265.018 30.26 262.638 27.744C260.258 25.16 256.994 23.868 252.846 23.868C248.562 23.868 245.094 25.194 242.442 27.846C239.79 30.498 238.464 34.034 238.464 38.454V70.992H228.672ZM311.97 72.828C307.21 72.828 303.096 72.012 299.628 70.38C296.16 68.748 293.338 66.606 291.162 63.954C288.986 61.234 287.354 58.208 286.266 54.876C285.246 51.544 284.736 48.144 284.736 44.676V42.84C284.736 39.304 285.246 35.87 286.266 32.538C287.354 29.206 288.986 26.214 291.162 23.562C293.338 20.842 296.092 18.7 299.424 17.136C302.824 15.504 306.802 14.688 311.358 14.688C317.274 14.688 322.136 15.98 325.944 18.564C329.82 21.08 332.676 24.344 334.512 28.356C336.416 32.368 337.368 36.652 337.368 41.208V45.594H289.02V38.25H330.228L327.984 42.228C327.984 38.352 327.372 35.02 326.148 32.232C324.924 29.376 323.088 27.166 320.64 25.602C318.192 24.038 315.098 23.256 311.358 23.256C307.482 23.256 304.252 24.14 301.668 25.908C299.152 27.676 297.248 30.09 295.956 33.15C294.732 36.21 294.12 39.746 294.12 43.758C294.12 47.634 294.732 51.136 295.956 54.264C297.248 57.324 299.22 59.772 301.872 61.608C304.524 63.376 307.89 64.26 311.97 64.26C316.254 64.26 319.722 63.308 322.374 61.404C325.094 59.5 326.726 57.29 327.27 54.774H336.45C335.702 58.514 334.206 61.744 331.962 64.464C329.718 67.184 326.896 69.258 323.496 70.686C320.096 72.114 316.254 72.828 311.97 72.828Z" fill="white"/>
<path d="M46.4747 2.90081C46.6125 2.89642 46.7503 2.89203 46.8922 2.88751C47.0225 2.88835 47.1529 2.88918 47.2872 2.89005C47.4023 2.88993 47.5173 2.88981 47.6359 2.88969C48.0465 3.01023 48.3425 3.16766 48.6336 3.48533C49.0297 4.26414 48.891 5.22695 48.8741 6.08031C48.8726 6.30449 48.8714 6.52867 48.8706 6.75285C48.8675 7.3411 48.8596 7.92918 48.8506 8.51736C48.8423 9.11827 48.8386 9.71921 48.8345 10.3202C48.8258 11.498 48.812 12.6756 48.7949 13.8533C48.9041 13.8746 49.0133 13.8958 49.1257 13.9177C49.2701 13.9461 49.4144 13.9745 49.5632 14.0037C49.7058 14.0316 49.8484 14.0596 49.9953 14.0883C50.5981 14.2162 51.1792 14.3883 51.7635 14.5828C51.8855 14.6233 52.0074 14.6638 52.133 14.7056C53.7275 15.2586 55.2315 16.0169 56.7383 16.7713C56.8663 16.8352 56.9944 16.8991 57.1263 16.9649C57.4294 17.1162 57.7323 17.2679 58.0352 17.4197C58.1413 17.3355 58.2475 17.2513 58.3568 17.1645C60.8821 15.2349 63.7177 14.5841 66.8499 14.9172C70.0846 15.4347 73.3772 16.8315 75.3809 19.5272C75.6056 20.0944 75.5848 20.4191 75.3809 20.9861C75.1614 21.289 75.1614 21.289 74.8859 21.5921C74.7836 21.7049 74.6812 21.8176 74.5757 21.9337C74.0256 22.5167 73.4629 23.086 72.8941 23.6508C72.7698 23.7749 72.6455 23.899 72.5174 24.0269C72.1247 24.4186 71.7315 24.8098 71.3383 25.201C71.07 25.4684 70.8019 25.7358 70.5337 26.0033C69.8803 26.6549 69.2265 27.3061 68.5723 27.9568C68.6591 28.1293 68.7459 28.3017 68.8353 28.4793C68.9515 28.7109 69.0678 28.9424 69.184 29.1739C69.2694 29.3434 69.2694 29.3434 69.3565 29.5164C70.2018 31.2021 70.9469 32.9072 71.551 34.6945C71.5917 34.8141 71.6324 34.9337 71.6743 35.057C71.9076 35.7706 72.0543 36.4508 72.1387 37.1971C72.3326 37.1837 72.5265 37.1703 72.7263 37.1565C75.3082 37.1687 77.5246 38.5461 79.312 40.298C81.7224 42.8146 83.0208 46.0049 83.0912 49.4667C83.0956 49.6045 83.1 49.7423 83.1045 49.8842C83.1032 50.0797 83.1032 50.0797 83.102 50.2792C83.1021 50.3943 83.1022 50.5093 83.1023 50.6279C82.9818 51.0385 82.8243 51.3345 82.5067 51.6256C81.7279 52.0217 80.7651 51.883 79.9117 51.8661C79.6875 51.8646 79.4633 51.8634 79.2391 51.8626C78.6509 51.8595 78.0628 51.8516 77.4746 51.8426C76.8737 51.8343 76.2728 51.8306 75.6718 51.8265C74.494 51.8178 73.3164 51.804 72.1387 51.7869C72.1068 51.9507 72.1068 51.9507 72.0743 52.1177C72.0459 52.2621 72.0175 52.4064 71.9883 52.5552C71.9604 52.6978 71.9324 52.8404 71.9037 52.9873C71.7758 53.5901 71.6037 54.1712 71.4092 54.7555C71.3687 54.8775 71.3282 54.9994 71.2864 55.125C70.7334 56.7195 69.9751 58.2235 69.2207 59.7303C69.1568 59.8583 69.0929 59.9864 69.0271 60.1183C68.8757 60.4214 68.724 60.7243 68.5723 61.0272C68.6565 61.1333 68.7407 61.2395 68.8275 61.3488C70.4402 63.4594 71.4178 66.1119 71.166 68.8084C71.1529 68.9699 71.1397 69.1315 71.1261 69.2979C70.745 72.7355 69.3197 75.7768 66.7029 78.0866C66.2478 78.4122 65.905 78.4961 65.3445 78.4662C64.9257 78.3508 64.72 78.176 64.4005 77.883C64.2877 77.7799 64.1749 77.6768 64.0587 77.5705C63.4772 77.0177 62.9065 76.4554 62.3412 75.8861C62.2171 75.7618 62.093 75.6375 61.9651 75.5094C61.5734 75.1167 61.1822 74.7235 60.791 74.3303C60.5236 74.062 60.2562 73.7939 59.9887 73.5257C59.3371 72.8723 58.6859 72.2185 58.0352 71.5643C57.4823 71.7789 56.9709 72.0214 56.4536 72.3123C54.3047 73.5146 51.305 75.1307 48.7949 75.1307C48.8083 75.3246 48.8217 75.5185 48.8354 75.7183C48.8197 78.2326 47.4754 80.4335 45.7889 82.209C43.2115 84.6594 40.0687 86.019 36.5253 86.0731C36.3186 86.0776 36.3186 86.0776 36.1078 86.0822C35.9775 86.0809 35.8471 86.0795 35.7128 86.0781C35.5977 86.0774 35.4827 86.0767 35.3641 86.0759C34.8474 85.9515 34.5824 85.714 34.2051 85.3436C34.1076 84.8779 34.1076 84.8779 34.1131 84.3324C34.1131 84.128 34.1132 83.9236 34.1132 83.713C34.1174 83.4907 34.1216 83.2684 34.1259 83.0462C34.1274 82.8181 34.1286 82.5901 34.1294 82.362C34.1325 81.7628 34.1404 81.1638 34.1494 80.5647C34.1577 79.953 34.1614 79.3412 34.1655 78.7294C34.1742 77.5297 34.188 76.3302 34.2051 75.1307C34.0969 75.1099 33.9886 75.0892 33.8772 75.0678C33.6617 75.0257 33.6617 75.0257 33.442 74.9828C33.3003 74.9554 33.1587 74.928 33.0127 74.8997C32.3416 74.7537 31.7007 74.5393 31.0541 74.31C30.9163 74.2614 30.7786 74.2129 30.6367 74.1629C28.7812 73.4904 26.9092 72.7035 25.2891 71.5643C24.7705 71.8074 24.3138 72.1043 23.8402 72.4255C21.1885 74.1136 18.1217 74.5135 15.0717 73.868C12.4139 73.2042 10.2347 72.0034 8.26758 70.1053C8.14742 69.9979 8.02726 69.8905 7.90347 69.7798C7.58109 69.4136 7.51895 69.2496 7.50769 68.7679C7.54938 68.1427 7.68461 67.8447 8.10899 67.3868C8.21211 67.2748 8.31522 67.1628 8.42146 67.0474C8.97636 66.4691 9.53714 65.8979 10.1059 65.3332C10.2302 65.2091 10.3545 65.085 10.4826 64.9571C10.8753 64.5654 11.2685 64.1742 11.6617 63.783C11.93 63.5156 12.1981 63.2482 12.4663 62.9807C13.1197 62.3291 13.7735 61.6779 14.4277 61.0272C14.2131 60.4743 13.9706 59.9629 13.6797 59.4456C12.4774 57.2967 10.8613 54.297 10.8613 51.7869C10.6674 51.8003 10.4735 51.8137 10.2737 51.8274C7.69183 51.8153 5.47541 50.4379 3.68799 48.6859C1.27755 46.1694 -0.0207679 42.9791 -0.0911865 39.5173C-0.0955749 39.3795 -0.0999632 39.2417 -0.104485 39.0998C-0.103649 38.9695 -0.102813 38.8391 -0.101952 38.7048C-0.102069 38.5897 -0.102187 38.4747 -0.102308 38.3561C0.0182345 37.9455 0.175662 37.6495 0.493328 37.3584C1.27214 36.9623 2.23495 37.101 3.08831 37.1179C3.31249 37.1194 3.53668 37.1206 3.76086 37.1214C4.3491 37.1245 4.93718 37.1324 5.52536 37.1414C6.12628 37.1497 6.72721 37.1534 7.32817 37.1575C8.50596 37.1662 9.68362 37.18 10.8613 37.1971C10.8821 37.0889 10.9028 36.9806 10.9242 36.8692C10.9522 36.7255 10.9803 36.5819 11.0092 36.434C11.0503 36.2215 11.0503 36.2215 11.0923 36.0047C11.2383 35.3336 11.4527 34.6927 11.682 34.0461C11.7306 33.9083 11.7791 33.7706 11.8291 33.6287C12.5016 31.7732 13.2885 29.9012 14.4277 28.2811C14.1846 27.7625 13.8877 27.3058 13.5665 26.8322C11.8818 24.1858 11.4733 21.1144 12.124 18.0694C12.825 15.2826 14.1319 12.3548 16.5352 10.6111C17.0882 10.409 17.4391 10.4324 17.9941 10.6111C18.299 10.8287 18.299 10.8287 18.6014 11.1048C18.7139 11.2074 18.8265 11.3099 18.9424 11.4156C19.5243 11.9669 20.094 12.5291 20.6588 13.0979C20.7829 13.2222 20.907 13.3465 21.0349 13.4746C21.4266 13.8673 21.8178 14.2605 22.209 14.6537C22.4764 14.922 22.7438 15.1901 23.0113 15.4583C23.6629 16.1117 24.3141 16.7655 24.9648 17.4197C25.4466 17.2335 25.9049 17.0381 26.3548 16.7846C31.6573 13.8533 31.6573 13.8533 34.2051 13.8533C34.1917 13.6594 34.1783 13.4655 34.1646 13.2657C34.1767 10.6838 35.5541 8.4674 37.3061 6.67999C39.8226 4.26955 43.0129 2.97123 46.4747 2.90081ZM39.4952 9.0331C38.2965 10.278 37.5716 11.4864 37.2852 13.2049C40.067 13.2049 42.8487 13.2049 45.7148 13.2049C45.7148 10.8511 45.7148 8.49723 45.7148 6.07207C43.3569 6.07207 41.1274 7.42644 39.4952 9.0331ZM17.1836 14.3397C15.3745 16.8081 14.7486 19.402 15.0762 22.4451C15.2989 23.5431 15.6852 24.4787 16.373 25.3631C17.2971 24.4689 18.1801 23.5188 18.9757 22.5084C19.2565 22.1634 19.5315 21.8823 19.8685 21.594C19.9791 21.4994 20.0896 21.4047 20.2035 21.3072C20.9211 20.7078 21.6448 20.1159 22.3711 19.5272C21.5137 18.4779 20.5613 17.5305 19.6025 16.5753C19.3187 16.2924 19.0359 16.0087 18.7531 15.7249C18.5734 15.5453 18.3937 15.3658 18.2139 15.1863C18.0867 15.0587 18.0867 15.0587 17.957 14.9284C17.6265 14.5209 17.6265 14.5209 17.1836 14.3397ZM34.8535 16.7713C34.7313 16.7991 34.609 16.8268 34.4831 16.8554C27.5527 18.4921 21.2611 23.2497 17.4774 29.2335C14.6162 33.881 13.0523 38.9674 13.0802 44.4413C13.0805 44.5622 13.0808 44.6831 13.0811 44.8077C13.0888 46.687 13.1936 48.4928 13.6172 50.3279C13.655 50.5068 13.655 50.5068 13.6937 50.6892C15.2208 57.8279 19.8041 64.3387 25.916 68.3088C30.639 71.2953 35.8434 72.9404 41.4493 72.9118C41.5702 72.9115 41.6911 72.9112 41.8157 72.9109C43.695 72.9032 45.5008 72.7984 47.3359 72.3748C47.4552 72.3496 47.5744 72.3243 47.6972 72.2983C54.8359 70.7712 61.3467 66.1879 65.3168 60.0759C68.2911 55.3723 69.9449 50.1802 69.9299 44.5933C69.9299 44.4141 69.9299 44.4141 69.9298 44.2313C69.9236 42.0553 69.7177 39.9691 69.2207 37.8455C69.1921 37.7215 69.1634 37.5976 69.1339 37.4698C67.4313 30.3977 62.5873 24.0632 56.431 20.2675C53.5792 18.5551 50.5796 17.3419 47.3359 16.6092C47.2209 16.5822 47.1058 16.5552 46.9873 16.5273C43.1033 15.6497 38.7058 15.8734 34.8535 16.7713ZM60.6289 19.365C61.5231 20.2891 62.4732 21.1721 63.4836 21.9677C63.8286 22.2485 64.1097 22.5235 64.3979 22.8605C64.4926 22.9711 64.5873 23.0816 64.6848 23.1955C65.2842 23.9131 65.876 24.6368 66.4648 25.3631C67.2816 24.6805 68.0407 23.9653 68.785 23.205C68.9833 23.0026 69.1819 22.8006 69.3809 22.599C69.4671 22.511 69.5532 22.4229 69.642 22.3322C69.8691 22.1209 69.8691 22.1209 70.1934 21.9588C70.1934 21.8518 70.1934 21.7448 70.1934 21.6346C70.2836 21.5978 70.3739 21.561 70.4669 21.5231C70.949 21.2495 71.2827 20.9105 71.6523 20.4998C71.6523 20.3928 71.6523 20.2858 71.6523 20.1756C68.6514 17.8478 63.8241 16.8799 60.6289 19.365ZM3.08008 40.2772C3.38723 43.0416 4.58275 45.3821 6.71076 47.2107C7.75087 48.0082 8.92648 48.4924 10.2129 48.7068C10.2129 45.925 10.2129 43.1432 10.2129 40.2772C7.85906 40.2772 5.50523 40.2772 3.08008 40.2772ZM72.7871 40.2772C72.7871 43.0589 72.7871 45.8407 72.7871 48.7068C75.1409 48.7068 77.4948 48.7068 79.9199 48.7068C79.6128 45.9424 78.4173 43.6019 76.2892 41.7733C75.2491 40.9758 74.0735 40.4916 72.7871 40.2772ZM15.7277 64.0622C15.5817 64.2067 15.5817 64.2067 15.4327 64.3541C15.328 64.4594 15.2233 64.5648 15.1154 64.6733C15.0079 64.7805 14.9005 64.8877 14.7897 64.9981C14.5623 65.2253 14.3353 65.4529 14.1087 65.6809C13.7605 66.0308 13.4106 66.379 13.0606 66.7269C12.8403 66.9474 12.6201 67.168 12.4001 67.3887C12.2947 67.4934 12.1894 67.5981 12.0808 67.706C11.9845 67.8033 11.8882 67.9007 11.7889 68.0009C11.7035 68.0866 11.6181 68.1723 11.5301 68.2606C11.3135 68.478 11.3135 68.478 11.3477 68.8084C13.4186 70.4148 16.0506 71.2499 18.6679 71.0361C20.0459 70.8447 21.2048 70.3714 22.3711 69.6189C21.715 68.941 21.0175 68.3149 20.3131 67.6876C19.9395 67.3494 19.9395 67.3494 19.6672 67.0619C19.4622 66.8263 19.4622 66.8263 19.1289 66.8631C19.0879 66.7686 19.047 66.6742 19.0048 66.5769C18.7816 66.1728 18.5329 65.922 18.1968 65.6067C17.6359 65.0642 17.176 64.501 16.734 63.859C16.6684 63.7804 16.6028 63.7019 16.5352 63.6209C16.102 63.6209 16.0307 63.7601 15.7277 64.0622ZM66.4648 63.6209C66.2375 63.8907 66.0156 64.1652 65.7961 64.4416C65.2545 65.114 64.7008 65.7348 64.068 66.3217C63.8348 66.53 63.8348 66.53 63.8711 66.8631C63.7766 66.904 63.6822 66.945 63.5849 66.9872C63.1808 67.2104 62.93 67.4591 62.6147 67.7952C62.0007 68.4278 61.3455 68.9469 60.6289 69.4568C61.5702 70.6109 62.633 71.6411 63.6887 72.6889C63.8796 72.8789 64.0704 73.069 64.2612 73.2591C64.7251 73.7213 65.1896 74.183 65.6543 74.6443C66.4123 73.7036 66.9926 72.8578 67.3868 71.7061C67.4881 71.4146 67.4881 71.4146 67.5914 71.1172C68.2503 69.0839 68.2287 66.5227 67.2754 64.5936C67.0788 64.234 66.8852 63.9415 66.627 63.6209C66.5735 63.6209 66.52 63.6209 66.4648 63.6209ZM37.2852 75.7791C37.2852 78.1329 37.2852 80.4868 37.2852 82.9119C40.0496 82.6048 42.3901 81.4093 44.2187 79.2812C45.0162 78.2411 45.5004 77.0655 45.7148 75.7791C42.933 75.7791 40.1513 75.7791 37.2852 75.7791Z" fill="white"/>
<path d="M53.2529 29.4462C53.4972 29.6509 53.7405 29.8568 53.9824 30.0643C54.1363 30.1887 54.1363 30.1887 54.2933 30.3157C57.622 33.0418 59.9082 37.5677 60.43 41.8035C60.9346 47.5478 59.5384 52.6054 55.9062 57.0757C55.2182 57.8743 54.4829 58.588 53.6582 59.2439C53.5042 59.3672 53.3502 59.4905 53.1915 59.6176C49.81 62.2228 45.7921 63.5296 41.5405 63.5094C41.341 63.5086 41.1415 63.5079 40.936 63.507C39.4429 63.4878 38.0783 63.3683 36.6367 62.9725C36.4428 62.9211 36.2489 62.8696 36.0491 62.8167C31.4465 61.4418 27.2588 58.2125 24.9148 53.9994C22.4338 49.3474 21.7744 44.1329 23.1867 39.024C24.6522 34.2464 27.8619 30.1847 32.249 27.7555C38.9625 24.2064 47.2528 24.7112 53.2529 29.4462ZM29.6951 33.7092C26.5438 37.3462 25.3721 41.5038 25.6133 46.2752C25.9962 50.2367 28.1327 54.0575 31.125 56.6502C34.7508 59.5858 38.9981 60.793 43.6492 60.3433C47.8338 59.7687 51.7121 57.4367 54.2703 54.0962C56.8482 50.5986 57.8985 46.3279 57.3063 42.0148C56.7328 38.9301 55.452 36.1098 53.334 33.7928C53.2128 33.6565 53.0916 33.5203 52.9667 33.3799C50.498 30.7477 46.7006 28.7754 43.0591 28.5851C37.9236 28.436 33.305 29.9274 29.6951 33.7092Z" fill="#00FFD0"/>
</svg>
